HIERARCHY
ROOT Hips
{
	OFFSET 0.00000 0.00000 0.00000
	CHANNELS 6 Xposition Yposition Zposition Zrotation Yrotation Xrotation 
	JOINT LHipJoint
	{
		OFFSET 0 0 0
		CHANNELS 3 Zrotation Yrotation Xrotation
		JOINT LeftHip
		{
			OFFSET 1.37590 -1.78394 0.89329
			CHANNELS 3 Zrotation Yrotation Xrotation
			JOINT LeftKnee
			{
				OFFSET 2.47928 -6.81178 0.00000
				CHANNELS 3 Zrotation Yrotation Xrotation
				JOINT LeftAnkle
				{
					OFFSET 2.63345 -7.23535 0.00000
					CHANNELS 3 Zrotation Yrotation Xrotation
					JOINT LeftToe
					{
						OFFSET 0.23938 -0.65768 2.27012
						CHANNELS 3 Zrotation Yrotation Xrotation
						End Site
						{
							OFFSET 0.00000 -0.00000 1.18363
						}
					}
				}
			}
		}
	}
	JOINT RHipJoint
	{
		OFFSET 0 0 0
		CHANNELS 3 Zrotation Yrotation Xrotation
		JOINT RightHip
		{
			OFFSET -1.33617 -1.78394 0.89329
			CHANNELS 3 Zrotation Yrotation Xrotation
			JOINT RightKnee
			{
				OFFSET -2.56922 -7.05888 0.00000
				CHANNELS 3 Zrotation Yrotation Xrotation
				JOINT RightAnkle
				{
					OFFSET -2.56568 -7.04915 0.00000
					CHANNELS 3 Zrotation Yrotation Xrotation
					JOINT RightToe
					{
						OFFSET -0.27533 -0.75646 2.18105
						CHANNELS 3 Zrotation Yrotation Xrotation
						End Site
						{
							OFFSET -0.00000 -0.00000 1.15233
						}
					}
				}
			}
		}
	}
	JOINT lowerback
	{
		OFFSET 0 0 0
		CHANNELS 3 Zrotation Yrotation Xrotation
		JOINT Chest
		{
			OFFSET 0.06190 2.15152 -0.00935
			CHANNELS 3 Zrotation Yrotation Xrotation
			JOINT Chest2
			{
				OFFSET 0.06334 2.15332 0.00872
				CHANNELS 3 Zrotation Yrotation Xrotation
				JOINT lowerneck
				{
					OFFSET 0 0 0
					CHANNELS 3 Zrotation Yrotation Xrotation
					JOINT Neck
					{
						OFFSET -0.04202 1.66908 0.23524
						CHANNELS 3 Zrotation Yrotation Xrotation
						JOINT Head
						{
							OFFSET 0.07510 1.69357 -0.24440
							CHANNELS 3 Zrotation Yrotation Xrotation
							End Site
							{
								OFFSET 0.02556 1.71719 -0.11000
							}
						}
					}
				}
				JOINT LeftCollar
				{
					OFFSET 0 0 0
					CHANNELS 3 Zrotation Yrotation Xrotation
					JOINT LeftShoulder
					{
						OFFSET 3.67168 1.26306 -0.41342
CHANNELS 3 Zrotation Xrotation Yrotation
						JOINT LeftElbow
						{
OFFSET 0 -4.685100 -0.000000
CHANNELS 3 Zrotation Xrotation Yrotation
							JOINT LeftWrist
							{
OFFSET 0 -3.396260 -0.000000
CHANNELS 3 Zrotation Xrotation Yrotation
								JOINT lhand
								{
									OFFSET 0 0 0
CHANNELS 3 Zrotation Xrotation Yrotation
									JOINT LFingers
									{
OFFSET 0 -0.486080 -0.000000
CHANNELS 3 Zrotation Xrotation Yrotation
										End Site
										{
OFFSET 0 -0.391890 -0.000000
										}
									}
								}
								JOINT LThumb
								{
OFFSET 0 0.000000 0.000000
CHANNELS 3 Zrotation Xrotation Yrotation
									End Site
									{
OFFSET 0 -0.397870 0.397870
									}
								}
							}
						}
					}
				}
				JOINT RightCollar
				{
					OFFSET 0 0 0
					CHANNELS 3 Zrotation Yrotation Xrotation
					JOINT RightShoulder
					{
						OFFSET -3.04136 1.42992 -0.76390
CHANNELS 3 Zrotation Xrotation Yrotation
						JOINT RightElbow
						{
OFFSET 0 -5.555760 -0.000000
CHANNELS 3 Zrotation Xrotation Yrotation
							JOINT RightWrist
							{
OFFSET 0 -3.327740 -0.000000
CHANNELS 3 Zrotation Xrotation Yrotation
								JOINT rhand
								{
									OFFSET 0 0 0
CHANNELS 3 Zrotation Xrotation Yrotation
									JOINT RFingers
									{
OFFSET 0 -0.507630 -0.000000
CHANNELS 3 Zrotation Xrotation Yrotation
										End Site
										{
OFFSET 0 -0.409260 -0.000000
										}
									}
								}
								JOINT RThumb
								{
OFFSET 0 0.000000 0.000000
CHANNELS 3 Zrotation Xrotation Yrotation
									End Site
									{
OFFSET 0 -0.415510 0.415510
									}
								}
							}
						}
					}
				}
			}
		}
	}
}
MOTION
Frames: 7
Frame Time: 0.008333333333333333
-5.400615 17.883977 5.698086 -77.071453 -83.475770 79.713677 0.000000 0.000000 0.000000 -12.454279 -8.773121 -18.943289 1.132496 6.758823 19.002831 -0.003139 2.889670 -3.943462 0.191860 -2.820844 -7.780429 0.000000 0.000000 0.000000 27.423007 -5.526021 -12.419728 -7.121907 -15.433112 49.332815 0.372498 -11.022185 -6.704919 -0.240244 -3.153892 8.707487 4.343414 3.916001 -3.950049 2.613347 5.001894 -2.963532 0.432456 2.420039 -0.705376 -11.290809 -7.487621 -1.240877 14.036616 -9.098375 -19.617694 6.538737 -4.799939 -4.364496 0.000000 0.000000 0.000000 1.177657 -8.385615 -51.855709 129.251618 -53.292378 93.226829 14.898146 -36.646490 -54.697245 0.000000 0.000000 0.000000 -7.125000 0.000000 0.000000 -72.942947 77.232479 60.053212 0.000000 0.000000 0.000000 5.501262 -15.986217 62.227828 -57.945131 -55.735236 -32.637336 -39.379151 -23.052095 66.355242 0.000000 0.000000 0.000000 7.125000 0.000000 0.000000 141.944276 -76.878737 150.802263
-5.577823 17.903659 5.705369 -69.421710 -83.467474 71.987375 0.000000 0.000000 0.000000 -13.033246 -8.647514 -18.195622 1.115041 6.708251 18.853755 0.012201 2.294902 -4.049789 0.187814 -2.791099 -7.697659 0.000000 0.000000 0.000000 26.931446 -5.713227 -13.717351 -7.435382 -15.687485 50.501856 0.440873 -11.847595 -6.572464 -0.271566 -3.351608 9.259262 4.088412 3.815421 -3.812680 2.504453 4.889681 -2.934800 0.447734 2.369203 -0.765756 -11.318732 -7.698005 -1.175314 14.040475 -9.387236 -19.672457 6.545580 -4.940297 -4.353798 0.000000 0.000000 0.000000 1.355667 -6.764253 -52.761012 128.114798 -53.726972 92.312787 14.608986 -36.765215 -54.568315 0.000000 0.000000 0.000000 -7.125000 0.000000 0.000000 -72.423575 77.099916 59.416828 0.000000 0.000000 0.000000 5.732265 -17.705993 61.976024 -59.983550 -56.303166 -34.327939 -39.253990 -23.256000 66.215432 0.000000 0.000000 0.000000 7.125000 0.000000 0.000000 141.671221 -77.007325 150.486309
-5.751720 17.923286 5.713106 -62.220550 -83.359811 64.731355 0.000000 0.000000 0.000000 -13.581247 -8.524517 -17.451225 1.094545 6.648345 18.677689 0.026049 1.724151 -4.183937 0.181647 -2.745231 -7.570273 0.000000 0.000000 0.000000 26.418629 -5.829369 -15.023315 -7.704071 -15.897028 51.489292 0.504160 -12.587777 -6.562782 -0.300330 -3.523382 9.739353 3.851973 3.694927 -3.664988 2.399941 4.749677 -2.911229 0.456153 2.303739 -0.836219 -11.315130 -7.873324 -1.141281 14.023424 -9.628463 -19.687900 6.537646 -5.057355 -4.335045 0.000000 0.000000 0.000000 1.502700 -5.198531 -53.668768 126.682333 -54.247763 91.153972 14.255951 -36.825940 -54.249139 0.000000 0.000000 0.000000 -7.125000 0.000000 0.000000 -71.115138 76.905179 57.970477 0.000000 0.000000 0.000000 5.951167 -19.495662 61.684796 -62.246581 -56.877282 -36.217047 -38.959012 -23.564803 65.999019 0.000000 0.000000 0.000000 7.125000 0.000000 0.000000 141.072239 -77.215196 149.844713
-5.922303 17.942749 5.721441 -55.718508 -83.174785 58.196311 0.000000 0.000000 0.000000 -14.098521 -8.402762 -16.713697 1.071804 6.581133 18.480145 0.038191 1.195052 -4.338012 0.174089 -2.687524 -7.410106 0.000000 0.000000 0.000000 25.880964 -5.869392 -16.325608 -7.920000 -16.059929 52.273824 0.561223 -13.235824 -6.671911 -0.325199 -3.665310 10.136934 3.635626 3.555793 -3.506111 2.301445 4.583569 -2.893006 0.458678 2.224603 -0.917392 -11.278224 -8.010035 -1.139091 13.985335 -9.817026 -19.665040 6.514804 -5.148689 -4.309356 0.000000 0.000000 0.000000 1.606667 -3.690317 -54.555335 124.929279 -54.844178 89.725646 13.678290 -36.956171 -53.862297 0.000000 0.000000 0.000000 -7.125000 0.000000 0.000000 -69.637960 76.599911 56.256172 0.000000 0.000000 0.000000 6.158838 -21.341193 61.342298 -64.738850 -57.442589 -38.311388 -38.529956 -23.929845 65.717832 0.000000 0.000000 0.000000 7.125000 0.000000 0.000000 140.174090 -77.486285 148.904582
-6.089868 17.961603 5.730246 -49.943961 -82.935653 52.410486 0.000000 0.000000 0.000000 -14.586599 -8.285555 -15.986932 1.047347 6.507960 18.265491 0.049314 0.700790 -4.513254 0.165354 -2.619524 -7.221151 0.000000 0.000000 0.000000 25.319676 -5.837120 -17.616985 -8.080737 -16.178274 52.852844 0.611720 -13.795190 -6.888212 -0.344892 -3.773532 10.440511 3.437240 3.399588 -3.340628 2.209275 4.393440 -2.879629 0.457496 2.132854 -1.006311 -11.202339 -8.110039 -1.167006 13.922210 -9.955884 -19.608760 6.475409 -5.216098 -4.278887 0.000000 0.000000 0.000000 1.663284 -2.243810 -55.406642 122.861089 -55.496174 88.027906 12.884318 -37.209250 -53.484794 0.000000 0.000000 0.000000 -7.125000 0.000000 0.000000 -68.358106 76.202052 54.636563 0.000000 0.000000 0.000000 6.359171 -23.225643 60.944573 -67.437788 -57.983936 -40.593026 -37.903680 -24.398245 65.371418 0.000000 0.000000 0.000000 7.125000 0.000000 0.000000 138.819176 -77.824115 147.524809
-6.254486 17.979712 5.739625 -44.902905 -82.665715 47.380365 0.000000 0.000000 0.000000 -15.051429 -8.173251 -15.273825 1.021365 6.429157 18.034920 0.059626 0.232765 -4.704575 0.155573 -2.541512 -7.004685 0.000000 0.000000 0.000000 24.726528 -5.732025 -18.885818 -8.178221 -16.248744 53.202017 0.654062 -14.260422 -7.202670 -0.358659 -3.847273 10.647358 3.249764 3.225630 -3.168713 2.124861 4.178316 -2.871121 0.458173 2.028315 -1.103499 -11.096209 -8.170134 -1.228738 13.842163 -10.039843 -19.516079 6.423311 -5.256803 -4.241696 0.000000 0.000000 0.000000 1.661679 -0.872362 -56.204432 120.457186 -56.182961 86.038178 11.996400 -37.566280 -53.031861 0.000000 0.000000 0.000000 -7.125000 0.000000 0.000000 -66.939331 75.736139 52.826922 0.000000 0.000000 0.000000 6.548166 -25.127453 60.489841 -70.346698 -58.484979 -43.066690 -37.158444 -24.906874 64.934165 0.000000 0.000000 0.000000 7.125000 0.000000 0.000000 137.033740 -78.234528 145.705606
-6.416569 17.996869 5.749174 -40.489088 -82.383205 42.997362 0.000000 0.000000 0.000000 -15.495060 -8.065569 -14.577774 0.994600 6.347092 17.794788 0.069460 -0.211945 -4.904887 0.144943 -2.453212 -6.759852 0.000000 0.000000 0.000000 24.104471 -5.562502 -20.125681 -8.213869 -16.274325 53.329468 0.687788 -14.638072 -7.593955 -0.366512 -3.888659 10.763550 3.070259 3.037443 -2.989556 2.047657 3.943344 -2.867379 0.462201 1.913515 -1.209269 -10.959871 -8.196257 -1.320416 13.745326 -10.077323 -19.393564 6.358923 -5.274998 -4.199175 0.000000 0.000000 0.000000 1.606434 0.418035 -56.946832 117.735306 -56.881403 83.767727 11.039720 -38.016249 -52.517672 0.000000 0.000000 0.000000 -7.125000 0.000000 0.000000 -65.457056 75.212201 50.910336 0.000000 0.000000 0.000000 6.724667 -27.025005 59.974901 -73.430025 -58.934345 -45.701519 -36.307867 -25.456428 64.412638 0.000000 0.000000 0.000000 7.125000 0.000000 0.000000 134.764506 -78.703553 143.397281
